<?xml version="1.0" standalone="no"?>
<!DOCTYPE svg PUBLIC "-//W3C//DTD SVG 20010904//EN"
 "http://www.w3.org/TR/2001/REC-SVG-20010904/DTD/svg10.dtd">
<svg version="1.0" xmlns="http://www.w3.org/2000/svg"
 width="1920.000000pt" height="1080.000000pt" viewBox="0 0 1920.000000 1080.000000"
 preserveAspectRatio="xMidYMid meet">

<g transform="translate(0.000000,1080.000000) scale(0.100000,-0.100000)"
fill="#000000" stroke="none">
<path d="M0 5400 l0 -5400 9600 0 9600 0 0 5400 0 5400 -9600 0 -9600 0 0
-5400z m11375 4620 c3 -6 -1 -7 -9 -4 -18 7 -21 14 -7 14 6 0 13 -4 16 -10z
m252 -99 c11 -6 13 -11 5 -11 -8 0 -10 -5 -6 -12 4 -7 -6 -2 -23 10 -17 12
-37 21 -45 19 -7 -2 -9 -2 -5 1 4 2 2 11 -5 19 -11 13 -7 13 25 0 20 -9 45
-21 54 -26z m187 -112 c6 -5 -4 -5 -24 1 -18 5 -35 12 -39 16 -9 10 53 -6 63
-17z m303 -150 c84 -49 165 -96 180 -107 15 -10 39 -26 53 -35 184 -121 258
-177 235 -177 -4 0 -20 10 -37 21 -25 18 -32 19 -39 8 -7 -11 -9 -11 -9 2 0 9
-9 19 -21 22 -12 3 -18 10 -15 16 4 6 -11 22 -33 35 -22 14 -42 30 -45 35 -4
5 -66 45 -139 89 -160 96 -182 108 -173 93 10 -15 0 -14 -32 5 -19 12 -16 6
13 -21 30 -28 33 -32 10 -17 -16 11 -42 33 -58 48 -35 37 -66 64 -72 64 -4 0
-92 65 -105 77 -9 9 128 -67 287 -158z m-12 -19 c3 -5 2 -10 -4 -10 -5 0 -13
5 -16 10 -3 6 -2 10 4 10 5 0 13 -4 16 -10z m69 -69 c-3 -3 -15 6 -27 18 l-22
24 27 -19 c14 -10 24 -21 22 -23z m386 -237 c0 -2 -9 0 -20 6 -11 6 -20 13
-20 16 0 2 9 0 20 -6 11 -6 20 -13 20 -16z m155 -94 c-3 -4 3 -14 13 -21 15
-13 16 -12 3 4 -25 31 -2 18 75 -45 131 -107 284 -250 397 -370 99 -107 125
-140 95 -122 -7 4 -8 3 -4 -5 4 -6 11 -9 16 -6 10 6 149 -154 246 -285 267
-361 469 -714 619 -1085 73 -182 189 -521 199 -585 l6 -35 -16 40 c-8 22 -22
64 -30 94 -8 30 -18 60 -23 65 -5 6 -11 24 -15 39 -9 38 -27 24 -21 -16 l5
-32 -14 30 c-16 31 -20 26 -10 -12 4 -13 12 -23 18 -23 16 0 76 -177 75 -220
l0 -35 -15 39 c-8 22 -21 47 -29 56 -8 9 -15 24 -15 33 0 9 -4 26 -10 39 -5
13 -15 43 -21 68 -10 37 -13 42 -20 25 -7 -18 -8 -18 -9 5 0 14 -8 36 -16 50
-10 16 -13 18 -8 5 4 -11 7 -31 8 -45 1 -14 9 -43 19 -64 9 -22 16 -41 13 -43
-2 -2 -9 10 -16 27 -7 16 -16 30 -21 30 -5 0 -9 11 -9 25 0 14 -4 25 -9 25 -5
0 -7 9 -4 20 3 12 -2 38 -10 58 -9 20 -18 46 -20 57 -2 11 -4 -7 -4 -40 -1
-39 6 -75 19 -103 10 -24 18 -48 16 -54 -7 -20 -56 123 -53 153 3 17 0 27 -5
24 -6 -4 -10 -2 -10 4 0 5 -3 17 -7 27 -5 14 -3 16 11 11 15 -6 18 -3 14 18
-3 13 -1 22 3 19 5 -3 9 -1 9 5 0 5 -4 12 -10 16 -5 3 -7 13 -4 23 5 14 4 14
-4 2 -6 -8 -9 -17 -7 -20 2 -4 -2 -7 -10 -7 -8 0 -15 7 -15 14 0 19 -40 114
-56 133 -7 9 -11 26 -7 38 3 14 1 22 -7 22 -7 0 -10 -7 -6 -15 3 -8 2 -15 -2
-15 -10 0 -31 48 -43 99 -5 24 -18 56 -28 70 -17 24 -31 84 -31 137 0 12 -7
27 -15 34 -8 7 -15 18 -15 24 -1 6 -12 34 -26 61 -13 28 -23 39 -20 26 4 -18
2 -21 -7 -12 -16 16 -27 14 -27 -6 0 -9 -3 -14 -6 -10 -5 5 -7 24 -14 112 -1
16 -3 14 -13 -9 l-13 -29 -12 27 c-8 18 -8 25 -1 20 8 -5 8 -1 0 14 -6 11 -8
28 -5 36 13 34 -93 203 -121 193 -6 -3 -12 1 -12 8 0 21 53 -9 72 -40 8 -14
23 -37 32 -52 11 -19 18 -23 21 -14 3 8 -1 19 -9 25 -19 15 -69 93 -69 107 0
11 -108 141 -122 147 -5 2 -8 10 -8 17 0 7 -7 15 -15 19 -8 3 -15 11 -15 17 0
8 6 7 18 -2 15 -13 16 -12 3 3 -7 10 -17 16 -21 13 -5 -3 -16 5 -24 17 -19 26
-21 42 -4 32 7 -4 8 -3 4 5 -4 6 -11 9 -15 6 -10 -6 -61 69 -61 90 0 8 -9 23
-19 32 -11 9 -18 20 -15 25 3 4 0 8 -7 8 -7 0 -9 -10 -7 -25 3 -13 1 -22 -3
-19 -5 3 -9 14 -9 24 0 10 -15 30 -32 45 -38 32 -57 62 -58 91 0 23 -33 58
-43 47 -4 -3 -7 3 -7 15 0 12 -5 22 -11 22 -5 0 -7 5 -4 10 3 6 3 15 -1 21 -4
8 -9 7 -15 -2 -6 -10 -10 -9 -15 6 -4 11 -14 24 -22 29 -11 7 -12 10 -2 16 8
5 20 0 31 -13 10 -12 18 -17 19 -12 0 6 -20 31 -45 55 -25 24 -45 41 -45 37 0
-3 12 -18 27 -32 20 -18 23 -25 12 -25 -19 0 -62 44 -53 53 4 4 2 13 -4 20 -7
8 -9 17 -5 20 3 4 1 7 -6 7 -7 0 -11 6 -8 14 4 9 0 13 -11 11 -9 -1 -20 3 -24
9 -4 6 -13 11 -20 11 -7 0 -18 11 -24 23 -6 13 -18 29 -25 35 -10 10 -10 8 0
-6 12 -15 11 -17 -7 -14 -25 4 -35 12 -38 33 -2 12 1 13 12 3 9 -7 14 -8 14
-1 0 12 -59 56 -66 50 -2 -3 2 -11 11 -18 8 -7 15 -20 15 -29 0 -9 -12 0 -32
24 -18 22 -32 42 -31 45 1 4 -14 12 -33 19 -19 7 -32 17 -28 22 3 6 13 8 21 4
14 -5 14 -3 2 11 -8 10 -15 12 -17 5 -5 -16 -25 -14 -48 5 -10 8 -13 12 -5 8
10 -5 12 -3 7 5 -6 9 -11 9 -22 0 -9 -7 -14 -8 -13 -3 4 21 -2 34 -15 34 -8 0
-16 3 -18 8 -1 4 -23 22 -47 39 -31 23 -38 32 -23 30 11 0 19 -4 16 -8 -2 -4
0 -10 5 -13 16 -10 21 23 6 38 -35 34 -10 24 45 -20 33 -25 57 -50 55 -54z
m233 -253 c8 -10 6 -13 -7 -13 -11 0 -17 6 -14 13 3 7 6 13 8 13 1 0 7 -6 13
-13z m-48 -32 c14 -19 14 -19 -2 -6 -10 7 -18 18 -18 24 0 6 1 8 3 6 1 -2 9
-13 17 -24z m45 -45 c10 -11 16 -20 13 -20 -3 0 -13 9 -23 20 -10 11 -16 20
-13 20 3 0 13 -9 23 -20z m93 -15 c-3 -3 -9 2 -12 12 -6 14 -5 15 5 6 7 -7 10
-15 7 -18z m196 -267 c-2 -3 0 -9 6 -13 5 -3 10 -11 10 -18 0 -6 -13 4 -29 23
-22 26 -26 38 -18 48 8 11 13 9 23 -10 7 -12 10 -26 8 -30z m410 -645 c8 -16
23 -37 33 -48 33 -37 49 -59 35 -51 -17 10 -92 105 -92 117 0 17 9 9 24 -18z
m124 -318 c-3 -3 -9 2 -12 12 -6 14 -5 15 5 6 7 -7 10 -15 7 -18z m69 -197
c-3 -8 -6 -5 -6 6 -1 11 2 17 5 13 3 -3 4 -12 1 -19z m382 -738 c0 -10 -3 -8
-9 5 -12 27 -12 43 0 25 5 -8 9 -22 9 -30z m15 -36 c3 -8 2 -12 -4 -9 -6 3
-10 10 -10 16 0 14 7 11 14 -7z m-20 -40 c5 -14 4 -15 -9 -4 -17 14 -19 20 -6
20 5 0 12 -7 15 -16z m21 -34 c3 -5 1 -10 -4 -10 -6 0 -11 5 -11 10 0 6 2 10
4 10 3 0 8 -4 11 -10z m122 -32 c-3 -8 -6 -5 -6 6 -1 11 2 17 5 13 3 -3 4 -12
1 -19z m-97 -23 c0 -5 -5 -3 -11 5 -9 12 -10 11 -6 -7 3 -16 0 -23 -9 -23 -17
0 -17 2 -2 35 8 18 14 22 20 13 4 -7 8 -17 8 -23z m25 -24 c-4 -17 -10 -29
-15 -26 -5 3 -4 19 2 36 13 38 22 31 13 -10z m94 -21 c0 -23 -1 -23 -9 -5 -5
11 -9 29 -9 40 -1 17 1 17 9 5 5 -8 9 -26 9 -40z m-119 -52 c0 -23 -3 -29 -11
-21 -6 6 -8 20 -4 32 9 30 15 26 15 -11z m52 25 c-6 -3 -9 -9 -6 -15 4 -6 1
-9 -6 -6 -23 7 -21 24 2 25 13 0 17 -1 10 -4z m70 -30 c6 -16 12 -41 14 -58 1
-16 8 -43 15 -60 l13 -30 4 29 c3 28 4 28 18 8 8 -12 12 -33 10 -48 -9 -47 11
-207 34 -269 33 -93 41 -159 33 -285 -4 -63 -9 -104 -11 -90 -2 14 -8 29 -13
34 -5 6 -9 28 -10 50 0 23 -5 50 -10 61 -15 34 1 -119 27 -242 4 -22 2 -33 -5
-33 -6 0 -11 -12 -11 -26 0 -14 4 -23 10 -19 15 9 12 -38 -4 -69 l-13 -26 -6
41 c-3 23 -11 45 -18 49 -8 5 -10 26 -7 64 3 31 1 59 -4 62 -4 3 -8 0 -8 -7 0
-7 -3 -10 -6 -6 -3 3 -1 14 5 24 7 13 10 14 11 3 0 -10 3 -11 11 -3 7 7 7 22
0 51 -10 34 -15 39 -32 35 -19 -5 -20 -4 -10 15 14 26 14 72 1 72 -6 0 -8 21
-6 50 3 28 0 50 -5 50 -5 0 -9 -8 -10 -17 0 -10 -7 9 -15 42 -8 34 -11 61 -5
63 9 3 3 43 -8 52 -16 14 -42 85 -32 88 6 2 8 14 5 28 -5 19 -3 23 8 19 9 -4
15 -22 16 -47 1 -23 7 -47 12 -52 6 -6 10 -19 10 -31 0 -12 7 -30 16 -41 15
-18 15 -18 9 4 -4 15 -2 22 7 22 10 0 10 2 0 8 -7 5 -17 35 -22 67 -5 32 -12
60 -15 63 -2 3 1 12 8 20 9 13 9 14 0 8 -9 -5 -13 0 -13 17 0 13 -9 42 -20 65
-11 22 -20 48 -20 57 0 10 -5 14 -12 10 -7 -4 -4 1 6 9 18 14 18 17 4 29 -8 6
-21 27 -27 46 -14 44 -14 50 4 27 15 -20 15 -20 15 0 1 16 3 16 15 -6 8 -14
14 -19 15 -12 0 7 5 10 12 6 7 -5 8 -3 2 7 -10 17 -16 49 -9 49 3 0 11 -12 17
-27z m-135 -170 c-3 -10 -5 -4 -5 12 0 17 2 24 5 18 2 -7 2 -21 0 -30z m73 18
c0 -5 -7 -12 -16 -15 -14 -5 -15 -4 -4 9 14 17 20 19 20 6z m26 -56 c-3 -8 -1
-15 5 -15 6 0 7 -5 3 -11 -5 -8 -10 -6 -16 5 -5 9 -6 21 -3 26 10 15 18 12 11
-5z m131 -17 c-3 -8 -6 -5 -6 6 -1 11 2 17 5 13 3 -3 4 -12 1 -19z m-148 -71
c0 -33 -2 -38 -9 -22 -12 28 -12 78 0 70 6 -3 10 -25 9 -48z m158 1 c-3 -7 -5
-2 -5 12 0 14 2 19 5 13 2 -7 2 -19 0 -25z m20 -125 c-3 -10 -5 -4 -5 12 0 17
2 24 5 18 2 -7 2 -21 0 -30z m-141 -173 c8 0 14 -6 14 -14 0 -8 -8 -14 -17
-13 -14 1 -18 11 -19 41 -1 24 0 30 3 14 2 -16 11 -28 19 -28z m-67 -120 c0
-9 -4 -8 -9 5 -5 11 -9 27 -9 35 0 9 4 8 9 -5 5 -11 9 -27 9 -35z m55 18 c-5
-8 -2 -9 9 -5 12 4 18 0 21 -16 2 -12 9 -44 14 -72 6 -28 7 -56 2 -65 -6 -11
-9 -6 -8 15 1 42 -19 110 -37 125 -17 14 -20 30 -4 30 5 0 7 -5 3 -12z m79
-129 c-8 -29 -13 -23 -13 14 0 22 3 28 9 18 5 -7 6 -22 4 -32z m94 -66 c-3
-10 -5 -2 -5 17 0 19 2 27 5 18 2 -10 2 -26 0 -35z m-120 -25 c-3 -8 -6 -5 -6
6 -1 11 2 17 5 13 3 -3 4 -12 1 -19z m50 -130 c-3 -7 -5 -2 -5 12 0 14 2 19 5
13 2 -7 2 -19 0 -25z m29 -49 c4 -7 8 -28 10 -47 l3 -34 -20 21 c-11 12 -24
21 -29 21 -6 0 -10 8 -10 18 0 9 4 13 8 7 11 -16 32 -16 32 -1 0 8 -6 17 -12
19 -10 4 -10 6 -1 6 6 1 15 -4 19 -10z m0 -89 c14 0 13 -20 -2 -67 -2 -7 0
-13 5 -13 9 0 -2 -87 -14 -98 -4 -4 -4 12 0 36 4 28 3 42 -4 42 -7 0 -11 -23
-11 -57 0 -32 4 -52 8 -46 5 8 8 -3 8 -25 0 -20 3 -81 6 -134 3 -62 2 -100 -5
-107 -7 -7 -5 -17 9 -32 30 -33 23 -151 -21 -339 -19 -85 -45 -195 -56 -245
-22 -99 -69 -267 -100 -360 -85 -252 -303 -734 -329 -727 -6 1 -9 -2 -6 -7 8
-13 -4 -42 -15 -36 -4 3 -13 -5 -20 -17 -12 -22 -11 -22 6 -8 13 10 6 -9 -19
-55 -77 -140 -129 -220 -109 -168 11 28 -16 5 -33 -30 l-17 -32 23 20 c26 22
22 12 -22 -53 -40 -58 -70 -85 -79 -71 -4 8 -12 3 -20 -12 -7 -13 -13 -27 -14
-31 0 -11 -15 -22 -15 -10 0 15 33 72 43 72 4 0 7 5 7 10 0 27 -52 -28 -80
-86 -18 -35 -37 -67 -42 -70 -5 -3 -7 -12 -4 -20 3 -8 1 -14 -4 -14 -6 0 -10
5 -10 10 0 6 -4 10 -10 10 -5 0 -10 -7 -10 -16 0 -10 -6 -14 -14 -11 -7 3 -19
0 -27 -6 -7 -7 -1 3 14 21 15 19 27 38 27 43 0 6 8 8 18 5 12 -4 23 4 36 27
11 17 20 34 21 37 0 3 15 27 33 54 18 28 32 57 32 65 1 9 12 30 27 46 l26 30
-17 -28 c-27 -44 -13 -56 16 -13 17 24 28 33 31 24 3 -7 5 -4 5 7 -2 38 2 56
11 50 5 -3 13 0 17 6 5 8 9 8 14 -1 5 -9 9 -9 14 -1 4 6 2 11 -4 11 -7 0 -9 8
-4 22 6 20 5 21 -10 9 -24 -20 -20 -4 9 33 14 18 25 38 25 45 0 18 41 94 47
87 3 -3 -2 -17 -11 -30 -9 -14 -16 -36 -16 -48 1 -16 7 -7 20 25 10 27 17 54
14 60 -6 17 41 109 50 100 4 -5 6 -3 4 3 -5 17 45 114 59 114 8 0 11 5 8 10
-8 13 4 52 15 45 22 -14 36 98 15 119 -11 11 -12 21 -3 50 6 20 15 36 20 36 4
0 8 6 8 14 0 8 4 17 10 21 5 3 5 -7 -1 -25 -6 -16 -15 -33 -20 -36 -11 -6 -12
-54 -1 -54 9 0 40 75 48 120 4 19 13 44 20 55 15 24 54 122 60 150 2 11 6 34
10 50 6 35 41 115 50 115 3 0 2 -10 -1 -21 -5 -13 -3 -19 3 -15 15 9 24 58 13
69 -7 7 -7 16 0 29 6 11 8 27 5 35 -5 13 -4 14 8 4 17 -14 20 -10 36 56 8 29
16 50 20 48 3 -2 4 12 2 31 -2 19 1 47 6 62 6 15 14 50 17 77 l5 50 -16 -55
c-8 -30 -20 -63 -25 -73 -5 -10 -7 -22 -4 -27 8 -13 -6 -61 -16 -55 -10 7 -59
-68 -59 -89 0 -7 -7 -20 -17 -27 -15 -13 -15 -12 -5 7 6 12 9 24 6 27 -3 3 4
15 16 27 12 12 19 28 16 35 -2 7 4 21 15 31 10 9 19 27 19 40 0 13 11 44 25
70 26 49 32 84 15 84 -15 0 -12 76 6 145 9 33 16 71 16 85 -1 23 0 23 8 5 7
-18 9 -16 16 14 7 34 7 34 24 13 10 -12 20 -18 24 -15 3 4 6 -1 6 -10 0 -10 5
-17 10 -17 6 0 10 7 10 15 0 8 -4 15 -10 15 -5 0 -10 7 -10 15 0 8 3 15 8 15
9 0 32 73 31 102 0 23 -1 22 -11 -2 -5 -14 -14 -33 -19 -42 -5 -10 -9 -26 -9
-35 0 -10 -5 -25 -10 -33 -7 -11 -10 -1 -10 35 0 28 0 66 -1 85 -1 40 26 206
40 242 4 12 9 63 10 113 1 49 7 92 12 95 10 7 14 47 7 70 -3 8 -3 12 -1 8 3
-5 11 -8 19 -8z m-89 -82 c-3 -8 -6 -5 -6 6 -1 11 2 17 5 13 3 -3 4 -12 1 -19z
m33 -78 c0 -21 -4 -29 -12 -24 -7 5 -9 0 -6 -14 3 -11 1 -23 -6 -25 -8 -3 -10
14 -8 59 3 55 6 62 18 50 8 -8 14 -29 14 -46z m107 -72 c-2 -13 -4 -5 -4 17
-1 22 1 32 4 23 2 -10 2 -28 0 -40z m-149 -77 c-13 -32 -13 -32 -15 31 -2 63
-2 63 13 33 13 -27 14 -36 2 -64z m119 57 c-3 -7 -5 -2 -5 12 0 14 2 19 5 13
2 -7 2 -19 0 -25z m20 -100 c-2 -18 -4 -4 -4 32 0 36 2 50 4 33 2 -18 2 -48 0
-65z m-7 -114 c0 -30 -3 -53 -7 -51 -8 5 -5 107 3 107 2 0 4 -25 4 -56z m-151
-58 c-9 -8 -10 -7 -5 7 3 10 7 24 7 30 1 7 3 4 6 -7 3 -10 -1 -23 -8 -30z
m-18 -49 c-10 -9 -11 -8 -5 6 3 10 9 15 12 12 3 -3 0 -11 -7 -18z m6 -69 c-3
-8 -6 -5 -6 6 -1 11 2 17 5 13 3 -3 4 -12 1 -19z m-40 -66 c-14 -17 -16 -12
-10 23 5 25 7 27 13 10 4 -11 3 -26 -3 -33z m-31 -467 c-4 -25 -11 -43 -16
-40 -6 3 -5 16 0 31 6 14 8 30 4 35 -3 5 -2 14 1 20 13 20 17 0 11 -46z m-104
-127 c-6 -6 -7 0 -4 19 5 21 7 23 10 9 2 -10 0 -22 -6 -28z m-19 17 c-3 -9 -8
-14 -10 -11 -3 3 -2 9 2 15 9 16 15 13 8 -4z m11 -113 c-7 -15 -14 -40 -15
-57 -1 -17 -3 -22 -6 -12 -2 9 -9 15 -14 12 -5 -4 -9 -1 -9 4 0 6 4 11 8 11 5
0 14 18 21 40 7 22 16 38 21 35 5 -3 2 -18 -6 -33z m-56 -117 c-6 -14 -13 -24
-14 -22 -6 6 9 47 17 47 5 0 3 -11 -3 -25z m25 -20 c-3 -9 -8 -14 -10 -11 -3
3 -2 9 2 15 9 16 15 13 8 -4z m-33 -65 c0 -23 -4 -28 -16 -23 -10 4 -12 8 -4
13 6 3 8 14 4 23 -3 10 -1 17 5 17 6 0 11 -13 11 -30z m-17 -59 c-2 -10 -11
-18 -19 -18 -9 0 -13 6 -9 14 3 8 5 19 5 24 0 4 6 6 14 3 8 -3 12 -13 9 -23z
m-187 -379 c-17 -16 -18 -16 -5 5 7 12 15 20 18 17 3 -2 -3 -12 -13 -22z m-38
-126 c-13 -25 -38 -51 -38 -39 0 4 7 17 15 27 8 10 12 22 10 26 -2 4 2 7 10 7
11 0 12 -5 3 -21z m-204 -234 c-19 -39 -27 -42 -13 -6 12 34 20 46 25 41 2 -2
-3 -18 -12 -35z m-14 -142 c-6 -11 -13 -20 -16 -20 -2 0 0 9 6 20 6 11 13 20
16 20 2 0 0 -9 -6 -20z m-30 -69 c0 -6 -4 -13 -10 -16 -5 -3 -10 1 -10 9 0 9
5 16 10 16 6 0 10 -4 10 -9z m-44 -79 c-18 -16 -18 -16 -6 6 6 13 14 21 18 18
3 -4 -2 -14 -12 -24z m-7 -152 c-54 -77 -68 -89 -61 -53 5 25 3 26 -11 15 -13
-11 -15 -10 -10 9 3 12 14 24 24 26 11 3 16 11 12 21 -4 14 -3 15 5 3 7 -10 7
-21 1 -32 -5 -10 -9 -23 -9 -30 0 -16 48 47 61 79 5 12 13 22 19 22 6 0 -8
-27 -31 -60z m-110 -32 c-43 -57 -54 -68 -41 -42 6 12 8 24 5 28 -3 3 -1 6 6
6 7 0 22 11 33 25 11 14 22 25 25 25 2 0 -10 -19 -28 -42z m-5 -118 c-26 -33
-49 -60 -52 -60 -5 0 1 8 52 73 20 26 40 47 42 47 3 0 -16 -27 -42 -60z m-284
-325 c-7 -9 -15 -13 -18 -10 -3 2 1 11 8 20 7 9 15 13 18 10 3 -2 -1 -11 -8
-20z m-96 -57 c-5 -7 0 -9 14 -6 15 4 19 2 15 -9 -3 -8 -12 -12 -19 -9 -7 3
-16 1 -19 -4 -3 -6 -15 -15 -27 -21 -18 -10 -17 -6 7 25 26 34 45 50 29 24z
m-4 -48 c-6 -11 -16 -20 -22 -20 -6 0 -3 9 7 20 10 11 20 20 22 20 2 0 -1 -9
-7 -20z m-183 -145 c-20 -19 -37 -31 -37 -27 0 11 63 72 69 66 3 -3 -11 -20
-32 -39z m73 42 c0 -2 -15 -16 -32 -33 l-33 -29 29 33 c28 30 36 37 36 29z
m-351 -300 c-2 -1 -15 -11 -29 -22 l-25 -20 19 23 c11 12 24 22 29 22 6 0 8
-1 6 -3z m-200 -140 c-2 -1 -13 -9 -24 -17 -19 -14 -19 -14 -6 3 7 9 18 17 24
17 6 0 8 -1 6 -3z m-89 -55 c0 -4 -13 -16 -30 -25 -17 -10 -30 -13 -30 -8 0 6
6 11 14 11 7 0 19 7 26 15 14 17 20 19 20 7z m-75 -51 c-3 -6 -11 -11 -17 -11
-6 0 -6 6 2 15 14 17 26 13 15 -4z m-55 -31 c0 -5 -5 -10 -11 -10 -5 0 -7 5
-4 10 3 6 8 10 11 10 2 0 4 -4 4 -10z"/>
<path d="M12745 9180 c3 -5 8 -10 11 -10 2 0 4 5 4 10 0 6 -5 10 -11 10 -5 0
-7 -4 -4 -10z"/>
<path d="M12985 8980 c3 -5 8 -10 11 -10 2 0 4 5 4 10 0 6 -5 10 -11 10 -5 0
-7 -4 -4 -10z"/>
<path d="M13200 8753 c0 -5 9 -18 20 -28 11 -10 20 -14 20 -8 0 5 -9 18 -20
28 -11 10 -20 14 -20 8z"/>
<path d="M13270 8662 c0 -5 7 -15 15 -22 8 -7 15 -8 15 -2 0 5 -7 15 -15 22
-8 7 -15 8 -15 2z"/>
<path d="M13260 8631 c0 -5 5 -13 10 -16 6 -3 10 -2 10 4 0 5 -4 13 -10 16 -5
3 -10 2 -10 -4z"/>
<path d="M13295 8611 c-3 -5 -1 -12 5 -16 6 -4 8 -11 5 -16 -4 -5 -1 -9 4 -9
6 0 10 11 9 25 -2 25 -12 32 -23 16z"/>
<path d="M13460 8462 c0 -5 7 -15 15 -22 8 -7 15 -8 15 -2 0 5 -7 15 -15 22
-8 7 -15 8 -15 2z"/>
<path d="M13550 8348 c1 -13 44 -68 54 -68 7 0 -34 69 -45 76 -5 3 -9 -1 -9
-8z"/>
<path d="M13545 8270 c-3 -5 -1 -10 4 -10 6 0 11 5 11 10 0 6 -2 10 -4 10 -3
0 -8 -4 -11 -10z"/>
<path d="M13616 8185 c4 -8 10 -15 15 -15 4 0 6 7 3 15 -4 8 -10 15 -15 15 -4
0 -6 -7 -3 -15z"/>
<path d="M13760 7895 c0 -5 5 -17 10 -25 5 -8 10 -10 10 -5 0 6 -5 17 -10 25
-5 8 -10 11 -10 5z"/>
<path d="M13856 7843 c-4 -9 -1 -21 5 -27 9 -8 10 -7 6 6 -3 9 -1 18 6 21 8 2
8 5 0 10 -6 4 -14 -1 -17 -10z"/>
<path d="M13810 7798 c0 -9 5 -20 10 -23 13 -8 13 5 0 25 -8 13 -10 13 -10 -2z"/>
<path d="M13900 7676 c0 -8 5 -18 10 -21 6 -3 10 1 10 9 0 8 -4 18 -10 21 -5
3 -10 -1 -10 -9z"/>
<path d="M13960 7643 c0 -5 7 -18 15 -29 12 -16 14 -16 15 -3 0 9 -7 22 -15
29 -8 7 -15 8 -15 3z"/>
<path d="M13940 7526 c0 -1 5 -18 11 -36 10 -26 14 -29 21 -17 5 11 4 24 -4
37 -11 17 -28 27 -28 16z"/>
<path d="M14020 7495 c0 -4 8 -20 17 -38 10 -18 22 -47 28 -65 11 -37 32 -44
27 -9 -5 31 -72 135 -72 112z"/>
<path d="M13980 7445 c0 -8 4 -15 10 -15 5 0 7 7 4 15 -4 8 -8 15 -10 15 -2 0
-4 -7 -4 -15z"/>
<path d="M14014 7411 c-1 -20 0 -29 3 -21 3 8 12 20 20 27 13 10 12 13 -4 21
-16 9 -18 6 -19 -27z"/>
<path d="M14030 7401 c0 -5 5 -13 10 -16 6 -3 10 -2 10 4 0 5 -4 13 -10 16 -5
3 -10 2 -10 -4z"/>
<path d="M13990 7371 c0 -23 21 -62 30 -56 17 11 11 44 -10 55 -12 7 -20 7
-20 1z"/>
<path d="M14106 7157 c3 -10 9 -15 12 -12 3 3 0 11 -7 18 -10 9 -11 8 -5 -6z"/>
<path d="M14171 7154 c0 -11 3 -14 6 -6 3 7 2 16 -1 19 -3 4 -6 -2 -5 -13z"/>
<path d="M14161 7113 c-1 -12 4 -25 9 -28 12 -7 12 2 0 30 -8 19 -9 19 -9 -2z"/>
<path d="M14200 7125 c0 -5 5 -17 10 -25 5 -8 10 -10 10 -5 0 6 -5 17 -10 25
-5 8 -10 11 -10 5z"/>
<path d="M14151 7064 c0 -11 3 -14 6 -6 3 7 2 16 -1 19 -3 4 -6 -2 -5 -13z"/>
<path d="M14185 7050 c-3 -11 -1 -28 5 -37 9 -15 10 -15 4 6 -4 14 -1 26 6 31
8 5 9 10 2 14 -6 3 -13 -3 -17 -14z"/>
<path d="M14281 6814 c0 -11 3 -14 6 -6 3 7 2 16 -1 19 -3 4 -6 -2 -5 -13z"/>
<path d="M14330 6415 c0 -5 5 -17 10 -25 5 -8 10 -10 10 -5 0 6 -5 17 -10 25
-5 8 -10 11 -10 5z"/>
<path d="M14366 6325 c4 -16 13 -35 21 -42 9 -7 12 -19 8 -32 -3 -11 -2 -28 3
-37 7 -12 9 -6 9 25 0 23 -4 44 -8 47 -5 3 -7 15 -5 27 1 12 1 16 -2 8 -3 -11
-8 -8 -18 10 l-14 24 6 -30z"/>
<path d="M14423 6240 c5 -39 3 -75 -4 -95 -9 -24 -9 -36 0 -51 11 -17 12 -15
8 13 -3 28 -1 31 11 20 13 -10 14 -4 8 53 -5 36 -8 75 -7 87 0 12 -4 25 -11
29 -8 5 -9 -10 -5 -56z"/>
<path d="M14451 6074 c0 -11 3 -14 6 -6 3 7 2 16 -1 19 -3 4 -6 -2 -5 -13z"/>
<path d="M14465 5933 c7 -30 13 -39 19 -32 8 8 -6 59 -16 59 -6 0 -7 -11 -3
-27z"/>
<path d="M14475 5879 c-4 -6 -13 -8 -21 -5 -9 3 -14 -2 -14 -14 0 -11 5 -20
10 -20 6 0 10 5 10 10 0 17 18 11 23 -7 3 -10 5 -3 6 15 1 33 -3 40 -14 21z"/>
<path d="M14451 5734 c0 -11 3 -14 6 -6 3 7 2 16 -1 19 -3 4 -6 -2 -5 -13z"/>
<path d="M14450 4989 c-7 -11 -9 -23 -7 -25 3 -3 -1 -29 -9 -57 -8 -29 -14
-60 -14 -69 0 -25 19 -22 30 5 5 13 9 16 10 7 1 -9 5 -6 10 8 6 13 6 31 0 45
-9 22 -9 22 -10 -3 -1 -14 -4 -20 -6 -14 -3 6 -1 37 4 68 10 61 8 67 -8 35z"/>
<path d="M14452 4800 c0 -14 2 -19 5 -12 2 6 2 18 0 25 -3 6 -5 1 -5 -13z"/>
<path d="M14492 4710 c0 -14 2 -19 5 -12 2 6 2 18 0 25 -3 6 -5 1 -5 -13z"/>
<path d="M14351 4549 c-6 -17 -8 -35 -5 -40 3 -5 0 -9 -6 -9 -6 0 -8 -11 -4
-27 4 -22 3 -25 -5 -13 -8 11 -10 4 -7 -30 2 -24 8 -46 13 -47 6 -2 18 21 27
52 10 30 22 57 27 61 5 3 9 17 9 32 0 21 -2 24 -10 12 -8 -12 -10 -9 -10 13 0
36 -15 34 -29 -4z"/>
<path d="M14387 4382 c-5 -8 -31 -117 -44 -182 -2 -15 4 -8 16 17 30 65 55
209 28 165z"/>
<path d="M14294 4049 c-6 -8 -14 -23 -19 -34 -9 -23 -16 -95 -9 -95 3 0 13 18
23 40 10 22 20 37 23 35 3 -3 8 1 12 10 3 9 2 13 -3 10 -5 -3 -11 7 -13 22 -2
21 -5 24 -14 12z"/>
<path d="M14239 3843 c0 -5 -3 -21 -5 -36 -3 -16 -1 -26 4 -23 12 7 21 66 10
66 -4 0 -8 -3 -9 -7z"/>
<path d="M14197 3794 c-4 -4 -7 -14 -7 -23 0 -11 3 -12 11 -4 6 6 10 16 7 23
-2 6 -7 8 -11 4z"/>
<path d="M14172 3660 c-14 -37 4 -52 18 -15 12 33 13 45 1 45 -5 0 -14 -13
-19 -30z"/>
<path d="M14146 3568 c-3 -13 -4 -24 -3 -24 1 -1 -7 -12 -18 -24 -11 -12 -19
-24 -17 -26 7 -12 1 -44 -8 -39 -6 3 -7 18 -4 32 5 17 3 24 -3 20 -6 -4 -13
-18 -15 -32 -3 -13 -2 -22 3 -20 4 3 9 -5 11 -17 3 -18 12 -5 41 53 20 41 37
81 37 87 0 21 -17 13 -24 -10z"/>
<path d="M14078 3364 c-6 -22 12 -28 29 -9 4 4 3 5 -4 1 -7 -3 -13 1 -15 11
-3 15 -5 15 -10 -3z"/>
<path d="M14035 3269 c-4 -6 -5 -12 -2 -15 2 -3 7 2 10 11 7 17 1 20 -8 4z"/>
<path d="M13985 3230 c-3 -5 -1 -10 4 -10 6 0 11 5 11 10 0 6 -2 10 -4 10 -3
0 -8 -4 -11 -10z"/>
<path d="M13912 3008 c-13 -17 -52 -87 -52 -95 0 -10 36 40 54 75 17 33 16 42
-2 20z"/>
<path d="M13741 2719 c-13 -17 -21 -32 -19 -35 3 -2 15 10 27 27 13 17 21 32
19 35 -3 2 -15 -10 -27 -27z"/>
</g>
</svg>
